<?xml version="1.0" encoding="UTF-8"?>
<svg id="Camada_2" xmlns="http://www.w3.org/2000/svg" version="1.1" xmlns:xlink="http://www.w3.org/1999/xlink" viewBox="0 0 790.5 334.9">
  <!-- Generator: Adobe Illustrator 29.8.4, SVG Export Plug-In . SVG Version: 2.1.1 Build 6)  -->
  <defs>
    <style>
      .st0 {
        fill: url(#Gradiente_sem_nome_51);
      }

      .st0, .st1, .st2 {
        isolation: isolate;
      }

      .st0, .st2 {
        mix-blend-mode: multiply;
      }

      .st2 {
        fill: url(#Gradiente_sem_nome_5);
      }

      .st3 {
        fill: url(#Gradiente_sem_nome_6);
      }

      .st4 {
        fill: #6d6e70;
      }
    </style>
    <linearGradient id="Gradiente_sem_nome_6" data-name="Gradiente sem nome 6" x1="512.8" y1="67.5" x2="677" y2="293.6" gradientTransform="translate(0 336) scale(1 -1)" gradientUnits="userSpaceOnUse">
      <stop offset=".2" stop-color="#8c4191"/>
      <stop offset=".3" stop-color="#7d5497"/>
      <stop offset=".8" stop-color="#34b6b9"/>
    </linearGradient>
    <linearGradient id="Gradiente_sem_nome_5" data-name="Gradiente sem nome 5" x1="497.8" y1="279.4" x2="497.8" y2="140.8" gradientTransform="translate(0 336) scale(1 -1)" gradientUnits="userSpaceOnUse">
      <stop offset="0" stop-color="#80298f"/>
      <stop offset="0" stop-color="#893997"/>
      <stop offset=".3" stop-color="#b27ebb"/>
      <stop offset=".6" stop-color="#d3b5d8"/>
      <stop offset=".8" stop-color="#ebdded"/>
      <stop offset=".9" stop-color="#f9f6fa"/>
      <stop offset="1" stop-color="#fff"/>
    </linearGradient>
    <linearGradient id="Gradiente_sem_nome_51" data-name="Gradiente sem nome 5" x1="651.1" y1="58.6" x2="651.1" y2="196.4" xlink:href="#Gradiente_sem_nome_5"/>
  </defs>
  <g class="st1">
    <g id="Camada_21" data-name="Camada_2">
      <g id="Camada_1-2">
        <g>
          <g>
            <path class="st3" d="M706.9,83.8h-55.7c-15.4,0-27.9,12.5-27.9,27.9v9.5c-15-22.5-40.6-37.4-69.7-37.4s-27.9-12.5-27.9-27.9v-27.9c0-15.4-12.5-27.9-27.9-27.9s-27.9,12.5-27.9,27.9v27.9h0v167.2c0,15.4,12.5,27.9,27.9,27.9h55.7c29.1,0,54.7-14.9,69.7-37.4v65.2h0v27.9c0,15.4,12.5,27.9,27.9,27.9s27.9-12.5,27.9-27.9v-27.9c0-15.4,12.5-27.9,27.9-27.9,46.2,0,83.6-37.4,83.6-83.6s-37.4-83.6-83.6-83.6h0ZM553.6,195.3h-27.9v-59.4c8.4,2.4,17.6,3.7,27.9,3.7,15.4,0,27.9,12.5,27.9,27.9s-12.5,27.9-27.9,27.9h0ZM706.9,195.3c-10.2,0-19.5,1.3-27.9,3.7v-59.4h27.9c15.4,0,27.9,12.5,27.9,27.9s-12.5,27.9-27.9,27.9h0Z"/>
            <path class="st2" d="M525.7,135.9c-37.1-10.6-55.7-42.9-55.7-79.8v139.2h55.7v-59.4h0Z"/>
            <path class="st0" d="M632.4,139.6c3.1,8.7,4.8,18.1,4.8,27.9,0,17.1-5.1,33-13.9,46.2v65.1c0-36.9,18.6-69.1,55.7-79.8v-59.4h-46.6Z"/>
          </g>
          <g>
            <path class="st4" d="M0,125.7h33.2c0,.4.1.8.1,1.4,0,.5,0,1.1,0,1.6s0,1,0,1.6,0,1.1-.1,1.5H6.5v22.9h23.2c0,.4.1.8.1,1.4,0,.5,0,1.1,0,1.6s0,1,0,1.6c0,.6,0,1.1-.1,1.5H6.5v33c-.4,0-.9.1-1.5.1s-1.1,0-1.7,0-1.2,0-1.8,0-1.1,0-1.5-.1v-67.7h0Z"/>
            <path class="st4" d="M68.7,161.7c0-4.1-1-7.2-2.9-9.1-1.9-1.9-4.8-2.9-8.7-2.9s-4.8.2-6.9.5-3.9.8-5.6,1.3c-.3-.6-.6-1.4-.8-2.4-.2-1.1-.3-2.1-.3-3,1.6-.5,3.6-.9,6-1.3,2.4-.3,4.8-.5,7.3-.5,6.1,0,10.6,1.3,13.6,4s4.4,6.9,4.4,12.6v31.7c-2.2.4-4.9.9-8,1.3s-6.1.7-8.9.7c-5.8,0-10.4-1.2-13.8-3.5-3.4-2.3-5-6.1-5-11.3s.5-4.8,1.5-6.7c1-2,2.3-3.6,4.1-5,1.7-1.3,3.8-2.4,6.2-3.1s5.1-1,8-1,4.2,0,5.8.2,3,.3,4.1.4v-2.9h0ZM68.7,170.1c-1.1-.1-2.4-.3-4-.4-1.6-.2-3.1-.2-4.6-.2-4.7,0-8.3.9-10.9,2.6-2.6,1.8-3.9,4.3-3.9,7.5s.4,3.7,1.2,5,1.8,2.2,3.1,2.9,2.6,1.1,4.1,1.3,3,.3,4.5.3,3.8,0,5.5-.3c1.7-.2,3.4-.4,5-.8v-18h0Z"/>
            <path class="st4" d="M122.4,187.4c.3.6.6,1.5.9,2.5s.5,1.9.6,2.6c-1.6.6-3.4,1-5.4,1.4-2,.4-4.2.6-6.7.6-7.8,0-13.8-2.2-17.9-6.4s-6.1-10.5-6.1-18.7.5-6.9,1.5-9.9c1-3,2.5-5.7,4.4-8s4.4-4,7.3-5.3,6.3-1.9,10.1-1.9,4.7.2,6.8.5c2.2.3,3.9.7,5.1,1.2,0,.8-.1,1.8-.3,2.8-.2,1.1-.5,1.9-.7,2.5-1.3-.4-2.8-.8-4.8-1.1-1.9-.3-4-.5-6.2-.5s-5.3.5-7.4,1.5c-2.1,1-3.9,2.3-5.3,4.1-1.4,1.8-2.5,3.8-3.2,6.2-.7,2.4-1,5-1,7.9,0,6.8,1.6,11.8,4.8,14.9,3.2,3.2,7.6,4.8,13.1,4.8s3.7-.2,5.4-.5c1.7-.3,3.3-.7,4.7-1.2h0Z"/>
            <path class="st4" d="M135.4,145.4c.4,0,.9-.1,1.6-.1.7,0,1.2,0,1.5,0s.9,0,1.6,0,1.2,0,1.6.1v27c0,3.4.3,6.2,1,8.3.7,2.2,1.7,3.9,3.1,5.1,1.3,1.2,3,2.1,4.9,2.5s4.1.7,6.6.7,3.9-.1,5.6-.3c1.6-.2,3.1-.5,4.3-.9v-42.5c.4,0,.9-.1,1.6-.1.7,0,1.2,0,1.5,0s.9,0,1.6,0,1.2,0,1.6.1v46.8c-2.3.6-4.9,1.2-7.8,1.7-2.9.5-5.8.7-8.8.7s-5.7-.3-8.3-.8-4.9-1.7-6.8-3.2c-1.9-1.6-3.4-3.8-4.6-6.6-1.1-2.8-1.7-6.5-1.7-11v-27.4h0Z"/>
            <path class="st4" d="M189.9,124.2c.4,0,.9-.1,1.6-.1s1.2,0,1.6,0,.8,0,1.5,0c.7,0,1.2,0,1.6.1v58.1c0,1.6.2,2.9.6,3.8.4.9.8,1.6,1.4,2,.6.4,1.2.7,1.9.8.7,0,1.3.1,1.9.1s1.4,0,2.2-.1c.8,0,1.4-.2,1.9-.3.3.8.5,1.6.7,2.4.1.9.2,1.7.3,2.4-.9.3-1.9.5-3,.7-1.1.1-2.1.2-3.1.2s-2.6-.1-4-.4c-1.3-.3-2.5-.8-3.5-1.6s-1.9-1.8-2.5-3.2c-.6-1.3-.9-3.1-.9-5.3v-59.5h0Z"/>
            <path class="st4" d="M248.5,124.2c.4,0,.9-.1,1.6-.1.7,0,1.2,0,1.5,0s.9,0,1.6,0c.7,0,1.2,0,1.6.1v68.1c-1.9.6-4.4,1.2-7.3,1.6-2.9.4-5.9.7-9,.7s-6.7-.4-9.7-1.2c-3-.8-5.6-2.2-7.8-4.1-2.2-1.9-3.9-4.4-5.2-7.4-1.3-3.1-1.9-6.9-1.9-11.4s.6-7.8,1.7-11.1,2.7-6,4.8-8.2c2.1-2.2,4.6-3.9,7.5-5.1,2.9-1.2,6.1-1.8,9.7-1.8s4.1.2,6.2.5,3.7.7,4.9,1.2v-21.7h0ZM248.5,151.8c-1.3-.5-2.9-1-4.8-1.4-1.9-.4-4-.6-6-.6-2.9,0-5.5.5-7.7,1.5-2.2,1-4,2.4-5.4,4.2s-2.5,3.9-3.2,6.4c-.7,2.5-1.1,5.3-1.1,8.3,0,6.5,1.6,11.3,4.7,14.3,3.1,3,7.5,4.5,13.2,4.5s4.1-.1,5.9-.3c1.9-.2,3.4-.5,4.4-.8v-36.1Z"/>
            <path class="st4" d="M297.7,161.7c0-4.1-1-7.2-2.9-9.1-1.9-1.9-4.8-2.9-8.7-2.9s-4.8.2-6.9.5-3.9.8-5.6,1.3c-.3-.6-.6-1.4-.8-2.4-.2-1.1-.3-2.1-.3-3,1.6-.5,3.6-.9,6-1.3,2.4-.3,4.8-.5,7.3-.5,6.1,0,10.6,1.3,13.6,4s4.4,6.9,4.4,12.6v31.7c-2.2.4-4.9.9-8,1.3s-6.1.7-8.9.7c-5.8,0-10.4-1.2-13.8-3.5-3.4-2.3-5-6.1-5-11.3s.5-4.8,1.5-6.7c1-2,2.3-3.6,4.1-5,1.7-1.3,3.8-2.4,6.2-3.1,2.4-.7,5.1-1,8-1s4.2,0,5.8.2,3,.3,4.1.4v-2.9h0ZM297.7,170.1c-1.1-.1-2.4-.3-4-.4-1.6-.2-3.1-.2-4.6-.2-4.7,0-8.3.9-10.9,2.6-2.6,1.8-3.9,4.3-3.9,7.5s.4,3.7,1.2,5c.8,1.3,1.8,2.2,3.1,2.9s2.6,1.1,4.1,1.3,3,.3,4.5.3,3.8,0,5.5-.3c1.7-.2,3.4-.4,5-.8v-18h0Z"/>
            <path class="st4" d="M351.9,124.2c.4,0,.9-.1,1.6-.1.7,0,1.2,0,1.5,0s.9,0,1.6,0c.7,0,1.2,0,1.6.1v68.1c-1.9.6-4.4,1.2-7.3,1.6-2.9.4-5.9.7-9,.7s-6.7-.4-9.7-1.2c-3-.8-5.6-2.2-7.8-4.1-2.2-1.9-3.9-4.4-5.2-7.4s-1.9-6.9-1.9-11.4.6-7.8,1.7-11.1,2.7-6,4.8-8.2c2.1-2.2,4.6-3.9,7.5-5.1,2.9-1.2,6.1-1.8,9.7-1.8s4.1.2,6.2.5c2,.3,3.7.7,4.9,1.2v-21.7h0ZM351.9,151.8c-1.3-.5-2.9-1-4.8-1.4-1.9-.4-4-.6-6-.6-2.9,0-5.5.5-7.7,1.5-2.2,1-4,2.4-5.4,4.2-1.4,1.8-2.5,3.9-3.2,6.4-.7,2.5-1.1,5.3-1.1,8.3,0,6.5,1.6,11.3,4.7,14.3,3.1,3,7.5,4.5,13.2,4.5s4.1-.1,5.9-.3c1.9-.2,3.4-.5,4.4-.8v-36.1h0Z"/>
            <path class="st4" d="M378.6,170.4c0,6.4,1.5,11.1,4.4,14.1,2.9,3,7.4,4.5,13.3,4.5s4.6-.2,6.6-.6c2-.4,4-1,6-1.7.3.7.6,1.5.8,2.5.2,1,.3,1.9.4,2.7-1.8.8-4,1.4-6.4,1.9-2.4.4-5.1.7-8,.7-4.1,0-7.7-.6-10.7-1.8s-5.4-2.9-7.3-5.1c-1.9-2.2-3.3-4.8-4.2-7.9s-1.4-6.4-1.4-10,.4-6.8,1.3-9.9c.8-3.1,2.1-5.8,3.9-8.1,1.7-2.3,3.9-4.1,6.6-5.5,2.7-1.3,5.9-2,9.7-2s5.9.5,8.4,1.6c2.4,1.1,4.5,2.6,6.2,4.5s2.9,4.2,3.8,6.9,1.3,5.6,1.3,8.7,0,1.3,0,2.2c0,.9,0,1.6-.1,2.3h-34.3,0ZM406.9,165.2c0-1.9-.3-3.9-.8-5.7-.5-1.9-1.3-3.5-2.3-4.9-1.1-1.4-2.4-2.6-4.1-3.4-1.7-.9-3.7-1.3-6.1-1.3-4.4,0-7.8,1.3-10.3,4.1s-3.9,6.5-4.4,11.4h28.1Z"/>
          </g>
        </g>
      </g>
    </g>
  </g>
</svg>