<?xml version="1.0" encoding="UTF-8"?>
<svg id="Camada_2" data-name="Camada 2" xmlns="http://www.w3.org/2000/svg" xmlns:xlink="http://www.w3.org/1999/xlink" viewBox="0 0 790.48 334.91">
  <defs>
    <style>
      .cls-1 {
        fill: url(#linear-gradient-2);
      }

      .cls-2 {
        fill: #fff;
      }

      .cls-3 {
        fill: url(#linear-gradient);
      }
    </style>
    <linearGradient id="linear-gradient" x1="497.42" y1="194" x2="497.42" y2="55.54" gradientUnits="userSpaceOnUse">
      <stop offset="0" stop-color="#fff"/>
      <stop offset=".08" stop-color="#fff" stop-opacity=".96"/>
      <stop offset=".22" stop-color="#fff" stop-opacity=".87"/>
      <stop offset=".4" stop-color="#fff" stop-opacity=".71"/>
      <stop offset=".6" stop-color="#fff" stop-opacity=".5"/>
      <stop offset=".83" stop-color="#fff" stop-opacity=".22"/>
      <stop offset="1" stop-color="#fff" stop-opacity="0"/>
    </linearGradient>
    <linearGradient id="linear-gradient-2" x1="650.93" y1="10496.19" x2="650.93" y2="10357.73" gradientTransform="translate(0 10637.1) scale(1 -1)" xlink:href="#linear-gradient"/>
  </defs>
  <g id="Camada_1-2" data-name="Camada 1">
    <g>
      <g>
        <path class="cls-3" d="M469.51,55.99v167.29c0,15.41,12.5,27.91,27.91,27.91h27.91v-115.33c-37.15-10.63-55.76-42.93-55.82-79.87Z"/>
        <g>
          <path class="cls-2" d="M706.75,83.73h-55.82c-15.41,0-27.91,12.5-27.91,27.91v9.54c-15-22.57-40.64-37.45-69.78-37.45-15.39,0-27.91-12.52-27.91-27.91v-27.91c0-15.41-12.5-27.91-27.91-27.91s-27.91,12.5-27.91,27.91v27.91h0c0,45.33,27.91,83.73,83.73,83.73,15.39,0,27.91,12.51,27.91,27.91s-12.52,27.91-27.91,27.91h-83.73v27.91c0,15.41,12.5,27.91,27.91,27.91h55.82c46.24,0,83.73-37.48,83.73-83.73,0-9.79-1.7-19.18-4.78-27.91h74.56c15.39,0,27.91,12.52,27.91,27.91s-12.52,27.91-27.91,27.91c-55.82,0-83.73,38.4-83.73,83.73h0v27.91c0,15.41,12.5,27.91,27.91,27.91s27.91-12.5,27.91-27.91v-27.91c0-15.39,12.52-27.91,27.91-27.91,46.24,0,83.73-37.48,83.73-83.73s-37.49-83.73-83.73-83.73Z"/>
          <path class="cls-1" d="M623.02,278.92V111.64c0-15.41,12.5-27.91,27.91-27.91h27.91v115.33c-37.15,10.63-55.76,42.93-55.82,79.87Z"/>
        </g>
      </g>
      <g>
        <path class="cls-2" d="M0,125.72h33.41c.06.38.11.84.14,1.37.03.54.05,1.06.05,1.56,0,.44-.02.96-.05,1.56-.03.6-.08,1.09-.14,1.47H6.53v23h23.28c.06.38.11.84.14,1.37.03.54.05,1.06.05,1.56,0,.44-.02.96-.05,1.56-.03.6-.08,1.09-.14,1.47H6.53v33.12c-.44.06-.95.11-1.51.14-.57.03-1.14.05-1.7.05-.63,0-1.25-.02-1.85-.05-.6-.03-1.09-.08-1.47-.14v-68.05Z"/>
        <path class="cls-2" d="M69.09,161.87c0-4.16-.98-7.21-2.93-9.13-1.96-1.92-4.86-2.89-8.71-2.89-2.52,0-4.83.17-6.91.52-2.08.35-3.94.77-5.58,1.28-.32-.57-.58-1.39-.8-2.46-.22-1.07-.33-2.08-.33-3.03,1.64-.5,3.66-.93,6.06-1.28,2.4-.35,4.86-.52,7.38-.52,6.12,0,10.66,1.34,13.63,4.02,2.96,2.68,4.45,6.89,4.45,12.63v31.89c-2.21.44-4.89.88-8.04,1.32-3.16.44-6.15.66-8.99.66-5.87,0-10.49-1.17-13.86-3.5-3.38-2.33-5.06-6.12-5.06-11.36,0-2.52.49-4.78,1.47-6.77.98-1.99,2.33-3.66,4.07-5.02,1.73-1.36,3.82-2.38,6.25-3.08,2.43-.69,5.09-1.04,8-1.04,2.27,0,4.23.08,5.87.24,1.64.16,3,.3,4.07.43v-2.93ZM69.09,170.29c-1.07-.13-2.41-.27-4.02-.43-1.61-.16-3.14-.24-4.59-.24-4.73,0-8.39.88-10.98,2.65-2.59,1.77-3.88,4.29-3.88,7.57,0,2.08.39,3.75,1.18,5.02.79,1.26,1.81,2.22,3.08,2.89,1.26.66,2.65,1.1,4.16,1.33,1.51.22,3.03.33,4.54.33,1.95,0,3.79-.09,5.49-.28s3.37-.44,5.02-.76v-18.08Z"/>
        <path class="cls-2" d="M123.03,187.71c.32.63.62,1.48.9,2.56.28,1.07.49,1.96.62,2.65-1.58.57-3.38,1.04-5.39,1.42-2.02.38-4.26.57-6.72.57-7.89,0-13.88-2.16-17.98-6.48-4.1-4.32-6.15-10.58-6.15-18.79,0-3.6.5-6.92,1.51-9.98,1.01-3.06,2.49-5.73,4.45-8,1.95-2.27,4.4-4.05,7.33-5.35,2.93-1.29,6.32-1.94,10.17-1.94,2.4,0,4.68.17,6.86.52,2.18.35,3.89.74,5.16,1.18,0,.82-.11,1.77-.33,2.84-.22,1.07-.46,1.93-.71,2.56-1.26-.44-2.86-.82-4.78-1.14-1.93-.31-3.99-.47-6.2-.47-2.84,0-5.32.49-7.43,1.47-2.11.98-3.88,2.35-5.3,4.12-1.42,1.77-2.48,3.85-3.17,6.25-.69,2.4-1.04,5.05-1.04,7.95,0,6.81,1.62,11.82,4.87,15,3.25,3.19,7.65,4.78,13.2,4.78,1.89,0,3.71-.16,5.44-.47,1.73-.32,3.3-.72,4.68-1.23Z"/>
        <path class="cls-2" d="M136.09,145.5c.38-.06.91-.11,1.61-.14.69-.03,1.2-.05,1.51-.05.38,0,.9.02,1.56.05.66.03,1.18.08,1.56.14v27.16c0,3.41.35,6.2,1.04,8.38.69,2.18,1.72,3.88,3.08,5.11,1.36,1.23,3.01,2.08,4.97,2.56,1.95.47,4.16.71,6.62.71,2.08,0,3.94-.11,5.58-.33,1.64-.22,3.09-.52,4.35-.9v-42.68c.38-.06.91-.11,1.61-.14.69-.03,1.2-.05,1.51-.05.38,0,.9.02,1.56.05.66.03,1.18.08,1.56.14v47.04c-2.33.63-4.94,1.18-7.81,1.66-2.87.47-5.82.71-8.85.71s-5.76-.28-8.38-.85c-2.62-.57-4.89-1.66-6.81-3.27-1.93-1.61-3.45-3.83-4.59-6.67s-1.7-6.53-1.7-11.07v-27.54Z"/>
        <path class="cls-2" d="M190.89,124.2c.38-.06.9-.11,1.56-.14.66-.03,1.18-.05,1.56-.05.32,0,.82.02,1.51.05.69.03,1.23.08,1.61.14v58.39c0,1.64.19,2.92.57,3.83.38.92.85,1.58,1.42,1.99.57.41,1.2.66,1.89.76.69.09,1.32.14,1.89.14.69,0,1.42-.05,2.18-.14s1.39-.2,1.89-.33c.31.76.54,1.58.66,2.46.13.88.22,1.7.28,2.46-.88.31-1.88.54-2.98.66-1.1.13-2.13.19-3.08.19-1.32,0-2.65-.14-3.97-.43-1.33-.28-2.51-.82-3.55-1.61-1.04-.79-1.88-1.86-2.51-3.22-.63-1.36-.95-3.14-.95-5.35v-59.81Z"/>
        <path class="cls-2" d="M249.75,124.2c.38-.06.91-.11,1.61-.14.69-.03,1.2-.05,1.51-.05.38,0,.9.02,1.56.05.66.03,1.18.08,1.56.14v68.42c-1.96.63-4.39,1.17-7.29,1.61-2.9.44-5.93.66-9.09.66-3.47,0-6.72-.41-9.75-1.23s-5.65-2.18-7.86-4.07c-2.21-1.89-3.96-4.38-5.25-7.48-1.29-3.09-1.94-6.91-1.94-11.45,0-4.16.57-7.87,1.7-11.12,1.14-3.25,2.74-5.99,4.83-8.23,2.08-2.24,4.59-3.96,7.52-5.16,2.93-1.2,6.17-1.8,9.7-1.8,2.08,0,4.15.17,6.2.52,2.05.35,3.71.74,4.97,1.18v-21.86ZM249.75,151.93c-1.26-.5-2.87-.96-4.83-1.37-1.96-.41-3.97-.62-6.06-.62-2.97,0-5.54.51-7.71,1.51-2.18,1.01-3.99,2.41-5.44,4.21-1.45,1.8-2.54,3.96-3.27,6.48-.73,2.52-1.09,5.3-1.09,8.33,0,6.56,1.56,11.34,4.68,14.34,3.12,3,7.55,4.5,13.3,4.5,2.08,0,4.07-.11,5.96-.33,1.89-.22,3.37-.49,4.45-.8v-36.25Z"/>
        <path class="cls-2" d="M299.25,161.87c0-4.16-.98-7.21-2.93-9.13-1.96-1.92-4.86-2.89-8.71-2.89-2.52,0-4.83.17-6.91.52-2.08.35-3.94.77-5.58,1.28-.32-.57-.58-1.39-.8-2.46-.22-1.07-.33-2.08-.33-3.03,1.64-.5,3.66-.93,6.06-1.28,2.4-.35,4.86-.52,7.38-.52,6.12,0,10.66,1.34,13.63,4.02,2.96,2.68,4.45,6.89,4.45,12.63v31.89c-2.21.44-4.89.88-8.04,1.32-3.16.44-6.15.66-8.99.66-5.87,0-10.49-1.17-13.86-3.5-3.38-2.33-5.06-6.12-5.06-11.36,0-2.52.49-4.78,1.47-6.77.98-1.99,2.33-3.66,4.07-5.02,1.73-1.36,3.82-2.38,6.25-3.08,2.43-.69,5.09-1.04,8-1.04,2.27,0,4.23.08,5.87.24,1.64.16,3,.3,4.07.43v-2.93ZM299.25,170.29c-1.07-.13-2.41-.27-4.02-.43-1.61-.16-3.14-.24-4.59-.24-4.73,0-8.39.88-10.98,2.65-2.59,1.77-3.88,4.29-3.88,7.57,0,2.08.39,3.75,1.18,5.02.79,1.26,1.81,2.22,3.08,2.89,1.26.66,2.65,1.1,4.16,1.33,1.51.22,3.03.33,4.54.33,1.95,0,3.79-.09,5.49-.28s3.37-.44,5.02-.76v-18.08Z"/>
        <path class="cls-2" d="M353.66,124.2c.38-.06.91-.11,1.61-.14.69-.03,1.2-.05,1.51-.05.38,0,.9.02,1.56.05.66.03,1.18.08,1.56.14v68.42c-1.96.63-4.39,1.17-7.29,1.61-2.9.44-5.93.66-9.09.66-3.47,0-6.72-.41-9.75-1.23s-5.65-2.18-7.86-4.07c-2.21-1.89-3.96-4.38-5.25-7.48-1.29-3.09-1.94-6.91-1.94-11.45,0-4.16.57-7.87,1.7-11.12,1.14-3.25,2.74-5.99,4.83-8.23,2.08-2.24,4.59-3.96,7.52-5.16,2.93-1.2,6.17-1.8,9.7-1.8,2.08,0,4.15.17,6.2.52,2.05.35,3.71.74,4.97,1.18v-21.86ZM353.66,151.93c-1.26-.5-2.87-.96-4.83-1.37-1.96-.41-3.97-.62-6.06-.62-2.97,0-5.54.51-7.71,1.51-2.18,1.01-3.99,2.41-5.44,4.21-1.45,1.8-2.54,3.96-3.27,6.48-.73,2.52-1.09,5.3-1.09,8.33,0,6.56,1.56,11.34,4.68,14.34,3.12,3,7.55,4.5,13.3,4.5,2.08,0,4.07-.11,5.96-.33,1.89-.22,3.37-.49,4.45-.8v-36.25Z"/>
        <path class="cls-2" d="M380.54,170.58c0,6.44,1.48,11.17,4.45,14.2,2.96,3.03,7.41,4.54,13.34,4.54,2.4,0,4.62-.2,6.67-.62,2.05-.41,4.05-.96,6.01-1.66.31.7.57,1.55.76,2.56.19,1.01.31,1.93.38,2.74-1.83.82-3.97,1.45-6.44,1.89-2.46.44-5.14.66-8.04.66-4.16,0-7.75-.62-10.74-1.85-3-1.23-5.46-2.95-7.38-5.16-1.93-2.21-3.34-4.84-4.26-7.9-.92-3.06-1.37-6.42-1.37-10.08s.43-6.85,1.28-9.94c.85-3.09,2.14-5.8,3.88-8.14,1.73-2.33,3.96-4.16,6.67-5.49,2.71-1.33,5.96-1.99,9.75-1.99,3.15,0,5.96.54,8.42,1.61,2.46,1.07,4.53,2.57,6.2,4.5,1.67,1.93,2.93,4.23,3.79,6.91.85,2.68,1.28,5.6,1.28,8.75,0,.57-.02,1.29-.05,2.18-.03.88-.08,1.64-.14,2.27h-34.45ZM408.93,165.37c0-1.95-.25-3.88-.76-5.77-.51-1.89-1.29-3.55-2.37-4.97-1.07-1.42-2.46-2.57-4.16-3.45-1.7-.88-3.75-1.32-6.15-1.32-4.42,0-7.86,1.36-10.32,4.07-2.46,2.71-3.94,6.53-4.45,11.45h28.2Z"/>
      </g>
    </g>
  </g>
</svg>